<svg xmlns="http://www.w3.org/2000/svg" viewBox="0 0 800 800" width="800" height="800">
  <rect width="800" height="800" fill="#F5EDD6"/>
  <!-- Kente horizontal band accents -->
  <rect x="100" y="30" width="600" height="4" fill="#C9901A"/>
  <rect x="120" y="40" width="560" height="4" fill="#2D5016"/>
  <rect x="100" y="50" width="600" height="4" fill="#C9901A"/>
  <rect x="100" y="760" width="600" height="4" fill="#C9901A"/>
  <rect x="120" y="750" width="560" height="4" fill="#2D5016"/>
  <rect x="100" y="740" width="600" height="4" fill="#C9901A"/>
  <!-- Necklace draping curve -->
  <path d="M250,180 Q250,140 300,140 L500,140 Q550,140 550,180" fill="none" stroke="#E8D5A3" stroke-width="3"/>
  <!-- Main necklace chain with alternating gold & green beads -->
  <path d="M250,180 Q200,300 180,420 Q170,500 240,560 Q320,620 400,640 Q480,620 560,560 Q630,500 620,420 Q600,300 550,180" fill="none" stroke="#E8D5A3" stroke-width="2"/>
  <!-- Gold beads along chain -->
  <circle cx="250" cy="180" r="9" fill="#C9901A"/>
  <circle cx="230" cy="240" r="9" fill="#2D5016"/>
  <circle cx="212" cy="300" r="9" fill="#C9901A"/>
  <circle cx="198" cy="360" r="9" fill="#2D5016"/>
  <circle cx="185" cy="420" r="9" fill="#C9901A"/>
  <circle cx="200" cy="475" r="9" fill="#2D5016"/>
  <circle cx="235" cy="525" r="9" fill="#C9901A"/>
  <circle cx="280" cy="565" r="9" fill="#2D5016"/>
  <circle cx="335" cy="600" r="9" fill="#C9901A"/>
  <circle cx="400" cy="640" r="12" fill="#C9901A" stroke="#8B4513" stroke-width="2"/>
  <circle cx="465" cy="600" r="9" fill="#C9901A"/>
  <circle cx="520" cy="565" r="9" fill="#2D5016"/>
  <circle cx="565" cy="525" r="9" fill="#C9901A"/>
  <circle cx="600" cy="475" r="9" fill="#2D5016"/>
  <circle cx="615" cy="420" r="9" fill="#C9901A"/>
  <circle cx="602" cy="360" r="9" fill="#2D5016"/>
  <circle cx="588" cy="300" r="9" fill="#C9901A"/>
  <circle cx="570" cy="240" r="9" fill="#2D5016"/>
  <circle cx="550" cy="180" r="9" fill="#C9901A"/>
  <!-- Pendant: diamond shape -->
  <polygon points="400,640 425,680 400,720 375,680" fill="#2D5016" stroke="#C9901A" stroke-width="2"/>
  <circle cx="400" cy="680" r="6" fill="#C9901A"/>
  <!-- Product name -->
  <text x="400" y="90" text-anchor="middle" font-family="Georgia, serif" font-size="34" fill="#8B4513" font-weight="bold">Collier or &amp; vert</text>
  <text x="400" y="120" text-anchor="middle" font-family="sans-serif" font-size="18" fill="#2D5016">Fait &#224; la main &#8226; Lom&#233;</text>
</svg>