<svg xmlns="http://www.w3.org/2000/svg" viewBox="0 0 800 800" width="800" height="800">
  <rect width="800" height="800" fill="#F5EDD6"/>
  <!-- Kente triangle border top -->
  <polygon points="0,0 40,50 80,0" fill="#C9901A"/>
  <polygon points="80,0 120,50 160,0" fill="#8B4513"/>
  <polygon points="160,0 200,50 240,0" fill="#C9901A"/>
  <polygon points="240,0 280,50 320,0" fill="#8B4513"/>
  <polygon points="320,0 360,50 400,0" fill="#C9901A"/>
  <polygon points="400,0 440,50 480,0" fill="#8B4513"/>
  <polygon points="480,0 520,50 560,0" fill="#C9901A"/>
  <polygon points="560,0 600,50 640,0" fill="#8B4513"/>
  <polygon points="640,0 680,50 720,0" fill="#C9901A"/>
  <polygon points="720,0 760,50 800,0" fill="#8B4513"/>
  <!-- Bag side view -->
  <rect x="250" y="250" width="300" height="320" rx="20" fill="none" stroke="#8B4513" stroke-width="5"/>
  <path d="M310,250 C310,180 490,180 490,250" fill="none" stroke="#8B4513" stroke-width="5"/>
  <!-- Gold horizontal bead rows -->
  <line x1="280" y1="320" x2="520" y2="320" stroke="#C9901A" stroke-width="3"/>
  <circle cx="300" cy="320" r="8" fill="#C9901A"/>
  <circle cx="330" cy="320" r="8" fill="#C9901A"/>
  <circle cx="360" cy="320" r="8" fill="#C9901A"/>
  <circle cx="390" cy="320" r="8" fill="#C9901A"/>
  <circle cx="420" cy="320" r="8" fill="#C9901A"/>
  <circle cx="450" cy="320" r="8" fill="#C9901A"/>
  <circle cx="480" cy="320" r="8" fill="#C9901A"/>
  <line x1="280" y1="380" x2="520" y2="380" stroke="#E8D5A3" stroke-width="3"/>
  <circle cx="300" cy="380" r="8" fill="#E8D5A3" stroke="#8B4513" stroke-width="1"/>
  <circle cx="340" cy="380" r="8" fill="#E8D5A3" stroke="#8B4513" stroke-width="1"/>
  <circle cx="380" cy="380" r="8" fill="#E8D5A3" stroke="#8B4513" stroke-width="1"/>
  <circle cx="420" cy="380" r="8" fill="#E8D5A3" stroke="#8B4513" stroke-width="1"/>
  <circle cx="460" cy="380" r="8" fill="#E8D5A3" stroke="#8B4513" stroke-width="1"/>
  <circle cx="500" cy="380" r="8" fill="#E8D5A3" stroke="#8B4513" stroke-width="1"/>
  <line x1="280" y1="440" x2="520" y2="440" stroke="#C9901A" stroke-width="3"/>
  <circle cx="300" cy="440" r="8" fill="#C9901A"/>
  <circle cx="330" cy="440" r="8" fill="#C9901A"/>
  <circle cx="360" cy="440" r="8" fill="#C9901A"/>
  <circle cx="390" cy="440" r="8" fill="#C9901A"/>
  <circle cx="420" cy="440" r="8" fill="#C9901A"/>
  <circle cx="450" cy="440" r="8" fill="#C9901A"/>
  <circle cx="480" cy="440" r="8" fill="#C9901A"/>
  <!-- Product name -->
  <text x="400" y="660" text-anchor="middle" font-family="Georgia, serif" font-size="36" fill="#8B4513" font-weight="bold">Sac dor&#233;</text>
  <text x="400" y="695" text-anchor="middle" font-family="sans-serif" font-size="18" fill="#2D5016">Vue alternative</text>
</svg>