<svg xmlns="http://www.w3.org/2000/svg" viewBox="0 0 800 800" width="800" height="800">
  <rect width="800" height="800" fill="#F5EDD6"/>
  <!-- Kente zigzag border -->
  <polyline points="0,60 40,20 80,60 120,20 160,60 200,20 240,60 280,20 320,60 360,20 400,60 440,20 480,60 520,20 560,60 600,20 640,60 680,20 720,60 760,20 800,60" fill="none" stroke="#C9901A" stroke-width="4"/>
  <polyline points="0,740 40,780 80,740 120,780 160,740 200,780 240,740 280,780 320,740 360,780 400,740 440,780 480,740 520,780 560,740 600,780 640,740 680,780 720,740 760,780 800,740" fill="none" stroke="#C9901A" stroke-width="4"/>
  <!-- Bag outline -->
  <path d="M280,280 C280,220 520,220 520,280 L520,280 L540,560 Q540,600 500,600 L300,600 Q260,600 260,560 Z" fill="none" stroke="#8B4513" stroke-width="5"/>
  <!-- Bag handle -->
  <path d="M330,280 C330,200 470,200 470,280" fill="none" stroke="#8B4513" stroke-width="5"/>
  <!-- Gold bead pattern on bag -->
  <circle cx="360" cy="380" r="12" fill="#C9901A"/>
  <circle cx="400" cy="360" r="12" fill="#C9901A"/>
  <circle cx="440" cy="380" r="12" fill="#C9901A"/>
  <circle cx="340" cy="420" r="12" fill="#C9901A"/>
  <circle cx="380" cy="440" r="12" fill="#C9901A"/>
  <circle cx="420" cy="420" r="12" fill="#C9901A"/>
  <circle cx="460" cy="440" r="12" fill="#C9901A"/>
  <circle cx="360" cy="480" r="12" fill="#C9901A"/>
  <circle cx="400" cy="500" r="12" fill="#C9901A"/>
  <circle cx="440" cy="480" r="12" fill="#C9901A"/>
  <!-- Diamond accents -->
  <polygon points="400,520 420,540 400,560 380,540" fill="#E8D5A3" stroke="#8B4513" stroke-width="2"/>
  <!-- Product name -->
  <text x="400" y="680" text-anchor="middle" font-family="Georgia, serif" font-size="36" fill="#8B4513" font-weight="bold">Sac dor&#233;</text>
  <text x="400" y="715" text-anchor="middle" font-family="sans-serif" font-size="18" fill="#2D5016">Fait &#224; la main &#8226; Lom&#233;</text>
</svg>